<svg width="16" height="16" viewBox="0 0 16 16" fill="none" xmlns="http://www.w3.org/2000/svg">
<path d="M15.6883 6.50111C13.1789 6.49987 10.6694 6.50049 8.16 6.50078C8.16033 7.54162 8.15877 8.58246 8.16062 9.62298C9.61391 9.62265 11.0672 9.62236 12.5202 9.62298C12.3518 10.6204 11.759 11.5325 10.9185 12.094C10.3901 12.4493 9.78296 12.6799 9.15707 12.7895C8.52715 12.897 7.87626 12.9108 7.2479 12.7836C6.60891 12.6561 5.99895 12.3899 5.46684 12.0146C4.616 11.4168 3.96667 10.5422 3.63327 9.55794C3.29236 8.55681 3.28986 7.44284 3.63483 6.44264C3.87419 5.73771 4.27259 5.08652 4.79595 4.55659C5.44151 3.89571 6.28081 3.42327 7.18508 3.22953C7.95937 3.06425 8.77585 3.09579 9.53392 3.32513C10.1782 3.52076 10.7722 3.87383 11.2588 4.33846C11.7506 3.84944 12.2399 3.35762 12.7308 2.86768C12.9883 2.60397 13.2589 2.3518 13.5082 2.0809C12.7627 1.39095 11.8887 0.836342 10.9338 0.485743C9.21457 -0.146975 7.2757 -0.160404 5.54495 0.438626C3.59451 1.10636 1.93373 2.56495 1.01291 4.40854C0.692326 5.04379 0.458268 5.72184 0.317664 6.41926C-0.0360565 8.15688 0.210488 10.0095 1.01197 11.5922C1.53286 12.6252 2.27965 13.5435 3.18551 14.2635C4.04012 14.945 5.03625 15.4483 6.0924 15.7293C7.42509 16.0867 8.84367 16.0786 10.1851 15.7733C11.3975 15.4943 12.5446 14.915 13.4604 14.0694C14.4285 13.1798 15.119 12.0077 15.4846 10.7482C15.8833 9.37429 15.9383 7.90754 15.6883 6.50111Z" fill="#DB4437"/>
</svg>
