<svg width="20" height="16" viewBox="0 0 20 16" fill="none" xmlns="http://www.w3.org/2000/svg">
<path d="M19.8447 1.89399C19.1209 2.21572 18.342 2.43273 17.5247 2.52985C18.3592 2.03027 18.999 1.23895 19.3008 0.294949C18.5202 0.758156 17.6562 1.09427 16.7358 1.27572C15.9992 0.490783 14.9493 0 13.7875 0C11.557 0 9.7485 1.80846 9.7485 4.03937C9.7485 4.3555 9.78406 4.66364 9.85321 4.95978C6.49606 4.79113 3.51939 3.18329 1.52708 0.739371C1.17938 1.33566 0.980349 2.02947 0.980349 2.77044C0.980349 4.17165 1.69334 5.4082 2.77722 6.13239C2.11538 6.11121 1.49231 5.92936 0.947577 5.62682C0.947178 5.6436 0.947178 5.66079 0.947178 5.67797C0.947178 7.63471 2.33959 9.26692 4.18762 9.63861C3.84871 9.73053 3.49181 9.78009 3.12333 9.78009C2.86275 9.78009 2.60976 9.75491 2.36317 9.70735C2.87754 11.312 4.36907 12.4802 6.13637 12.5126C4.75394 13.596 3.01262 14.2419 1.11983 14.2419C0.794108 14.2419 0.472381 14.2227 0.15625 14.1851C1.94433 15.3318 4.06732 16 6.34819 16C13.7783 16 17.8408 9.84523 17.8408 4.50737C17.8408 4.33232 17.8372 4.15767 17.8296 3.98421C18.6186 3.4159 19.3036 2.7041 19.8447 1.89399Z" fill="#1DA1F2"/>
</svg>
