<svg width="34" height="34" viewBox="0 0 34 34" fill="none" xmlns="http://www.w3.org/2000/svg">
<g clip-path="url(#clip0_1559_489)">
<path d="M29.2053 14.2495C29.2125 14.0206 29.1379 13.7967 28.9948 13.6179C28.9307 13.5361 28.8484 13.4704 28.7545 13.426C28.6606 13.3816 28.5576 13.3598 28.4537 13.3622C27.7932 13.3622 27.0611 13.8478 26.2572 14.8192C25.4533 15.7905 24.9217 16.8215 24.6626 17.9123C25.8347 17.6827 26.9272 17.1531 27.8332 16.3749C28.7486 15.5963 29.2059 14.8878 29.2053 14.2495Z" fill="#246AA3"/>
<path d="M29.3834 0H4.61655C3.39217 0 2.21793 0.486386 1.35216 1.35216C0.486386 2.21793 0 3.39217 0 4.61655L0 29.3834C0 30.6078 0.486386 31.7821 1.35216 32.6478C2.21793 33.5136 3.39217 34 4.61655 34H29.3834C30.6078 34 31.7821 33.5136 32.6478 32.6478C33.5136 31.7821 34 30.6078 34 29.3834V4.61655C34 3.39217 33.5136 2.21793 32.6478 1.35216C31.7821 0.486386 30.6078 0 29.3834 0ZM17.7617 22.7882C17.4577 23.3194 17.1997 23.5851 16.988 23.5851C16.2814 23.5851 15.7024 23.4543 15.2512 23.1926C14.8001 22.931 14.3636 22.4432 13.942 21.7292C13.5203 21.0164 13.1387 20.1171 12.7971 19.0313C12.4555 17.9455 12.2523 17.1637 12.1877 16.6861C12.112 16.8092 11.5352 18.0095 10.4574 20.287C10.3651 20.4846 10.3134 20.5944 10.2986 20.6175C9.00597 23.22 8.01157 24.5216 7.31539 24.5222C6.22219 24.5222 5.26595 23.1656 4.44667 20.4523C3.62738 17.739 3.21589 15.4765 3.2122 13.665C3.2122 13.0131 3.36608 12.4859 3.67385 12.0834C3.98162 11.6808 4.41897 11.4808 4.98588 11.4832C5.34228 11.4832 5.65897 11.6371 5.93597 11.9449C6.21296 12.2526 6.35146 12.5469 6.35146 12.8276L6.25174 14.3298C6.22219 14.7853 6.20711 15.2405 6.2065 15.6954C6.2065 16.5005 6.37362 17.5688 6.70785 18.9002C7.04209 20.2316 7.27723 20.8976 7.41326 20.8982C7.51175 20.8982 7.89492 20.2211 8.56279 18.8669C9.43624 17.0991 10.1423 15.7634 10.6809 14.8598H10.6698C11.4275 13.4176 12.0991 12.4727 12.6844 12.0252C13.1769 12.0788 13.5736 12.2268 13.8746 12.4693C14.1756 12.7118 14.3255 12.9965 14.3242 13.3234C14.3285 13.5136 14.3171 13.7038 14.2901 13.8921C14.2612 14.0075 14.2457 14.1259 14.2439 14.2448C14.2439 16.5371 14.8776 18.5992 16.145 20.431C16.229 20.5141 16.3029 20.4652 16.3675 20.2824C16.4322 20.0996 16.5891 19.5391 16.8403 18.5973C17.3032 16.8523 17.8264 15.3325 18.4099 14.038C18.9934 12.7435 19.472 11.9421 19.8456 11.6337C20.197 11.3321 20.6457 11.1681 21.1087 11.1721C21.3919 11.1809 21.6614 11.2958 21.8639 11.494C22.0664 11.6922 22.187 11.9592 22.2019 12.2422C22.2019 12.561 22.1336 12.8116 21.997 12.9938C21.0182 14.2993 20.1494 16.1056 19.3905 18.4127C18.6087 20.7985 18.0658 22.257 17.7617 22.7882ZM30.3095 22.7596C28.9818 23.8565 27.483 24.405 25.813 24.405C24.5308 24.405 23.5213 24.0009 22.7845 23.1926C22.0477 22.3844 21.6784 21.2592 21.6766 19.817C21.6766 17.6916 22.4278 15.6991 23.9304 13.8395C25.4329 11.98 27.0382 11.0505 28.7464 11.0511C29.5958 11.0511 30.2787 11.3204 30.7952 11.859C31.0467 12.1118 31.2454 12.4121 31.3797 12.7425C31.5139 13.0728 31.5811 13.4266 31.5772 13.7832C31.5772 15.1035 30.9435 16.3614 29.6761 17.5568C28.4087 18.7521 26.7831 19.5785 24.7992 20.0358C24.5721 20.0894 24.4585 20.226 24.4585 20.4458C24.4585 20.8108 24.6195 21.158 24.9414 21.4873C25.2633 21.8166 25.6942 21.9819 26.234 21.9831C27.7593 21.9831 29.2736 21.1974 30.7767 19.6259C31.0648 19.323 31.3455 19.1713 31.6188 19.1707C32.0743 19.1707 32.302 19.4249 32.302 19.9334C32.302 20.7213 31.6379 21.6633 30.3095 22.7596Z" fill="#246AA3"/>
</g>
<defs>
<clipPath id="clip0_1559_489">
<rect width="34" height="34" fill="white"/>
</clipPath>
</defs>
</svg>
